<?xml version="1.0" standalone="no"?>
<!DOCTYPE svg PUBLIC "-//W3C//DTD SVG 20010904//EN"
 "http://www.w3.org/TR/2001/REC-SVG-20010904/DTD/svg10.dtd">
<svg version="1.0" xmlns="http://www.w3.org/2000/svg"
 width="60.000000pt" height="155.000000pt" viewBox="0 0 60.000000 155.000000"
 preserveAspectRatio="xMidYMid meet">
<metadata>
Created by potrace 1.10, written by Peter Selinger 2001-2011
</metadata>
<g transform="translate(0.000000,155.000000) scale(0.017000,-0.017000)"
fill="#aaa" stroke="none">
<path d="M2750 8985 c0 -14 -9 -18 -78 -29 -22 -4 -60 -29 -113 -76 l-79 -70
-79 0 c-72 0 -81 -2 -116 -30 -21 -16 -42 -30 -47 -30 -6 0 -54 -43 -108 -95
-54 -52 -103 -95 -109 -95 -19 0 -181 -162 -216 -215 -18 -27 -42 -61 -54 -74
-12 -14 -24 -36 -27 -50 -10 -51 -13 -53 -94 -90 -45 -20 -150 -116 -195 -176
-28 -38 -55 -122 -55 -173 0 -34 -8 -49 -54 -100 -42 -47 -58 -75 -75 -130
-11 -39 -21 -88 -21 -110 0 -22 -7 -59 -15 -82 -15 -43 -20 -136 -9 -177 10
-38 38 -26 107 46 55 57 67 75 67 103 1 18 6 42 13 54 16 28 170 194 180 194
12 0 8 -66 -8 -103 -9 -21 -15 -68 -15 -109 -1 -44 -6 -83 -15 -98 -12 -20
-14 -85 -15 -338 l0 -312 32 -58 c17 -31 39 -67 49 -80 18 -24 15 -54 -7 -73
-8 -6 -14 -30 -14 -53 0 -23 -14 -80 -31 -126 -16 -47 -34 -112 -39 -145 -22
-142 -28 -172 -38 -198 -7 -16 -12 -41 -12 -56 0 -16 -7 -45 -15 -64 -8 -20
-15 -50 -15 -67 0 -36 -9 -38 -38 -7 -25 25 -14 15 -270 264 -106 103 -203
204 -215 223 -11 19 -39 54 -60 76 -21 23 -47 55 -57 71 -9 16 -30 42 -45 59
-15 16 -38 52 -52 79 -14 28 -58 85 -98 127 -40 42 -87 103 -105 135 -38 67
-118 153 -166 179 -41 22 -78 85 -69 117 4 12 24 42 45 67 20 25 56 83 79 130
24 47 46 87 49 90 21 16 34 44 38 81 7 60 66 164 134 234 56 59 90 111 90 138
0 18 72 159 99 193 12 15 21 34 21 44 0 9 12 35 26 56 46 67 55 96 41 140 -13
45 -22 54 -57 54 -40 0 -142 -110 -176 -190 -15 -36 -42 -87 -59 -115 -18 -27
-49 -81 -69 -119 -20 -38 -47 -82 -61 -98 -13 -16 -29 -45 -34 -65 -6 -20 -19
-45 -30 -57 -19 -21 -43 -61 -84 -141 -12 -22 -44 -67 -73 -101 -28 -33 -54
-73 -58 -87 -3 -15 -24 -50 -46 -79 -21 -28 -41 -63 -45 -76 -3 -13 -16 -37
-28 -54 -19 -26 -22 -42 -22 -131 l0 -102 27 -5 c14 -3 39 -17 55 -32 15 -16
60 -58 100 -94 41 -38 87 -92 108 -129 21 -35 66 -94 102 -132 36 -37 76 -90
90 -118 14 -27 43 -69 64 -92 22 -24 39 -47 39 -53 0 -6 27 -40 60 -75 33 -35
60 -70 60 -77 0 -19 361 -378 403 -399 21 -11 42 -30 47 -43 4 -13 29 -44 54
-70 30 -30 46 -55 46 -71 0 -14 4 -25 8 -25 13 0 94 -80 115 -112 16 -25 17
-105 17 -1188 0 -804 -3 -1167 -11 -1181 -11 -21 -24 -108 -38 -244 -5 -49
-23 -123 -46 -190 -21 -60 -41 -135 -45 -165 -4 -30 -19 -86 -34 -125 -14 -38
-26 -79 -26 -91 0 -11 -6 -40 -14 -65 -8 -24 -20 -78 -26 -119 -7 -41 -24 -95
-37 -120 -39 -71 -63 -155 -63 -215 0 -31 -4 -64 -10 -74 -5 -10 -14 -43 -19
-72 -12 -61 -34 -155 -51 -213 -7 -22 -10 -51 -7 -65 3 -14 -1 -37 -8 -51 -8
-14 -14 -38 -15 -55 0 -16 -6 -50 -14 -75 -21 -66 -61 -216 -73 -270 -2 -14
-11 -39 -19 -57 -8 -17 -14 -51 -14 -76 0 -27 -9 -61 -23 -88 -27 -50 -52
-125 -63 -184 -4 -22 -17 -60 -29 -85 -12 -25 -25 -63 -27 -86 -3 -22 -18 -60
-33 -83 -26 -43 -27 -71 -3 -71 8 0 44 30 80 68 71 70 128 169 128 220 0 15
14 56 30 90 17 35 30 72 30 81 0 9 7 26 15 37 8 10 15 36 15 57 0 22 12 60 30
94 20 38 30 70 30 100 0 24 5 53 10 64 6 10 15 38 20 61 8 42 26 114 50 208 6
25 15 49 21 54 5 6 9 27 9 48 0 21 7 55 15 75 8 19 15 51 15 70 0 31 10 75 65
293 9 36 16 86 15 111 -1 50 29 153 60 206 11 18 22 49 25 70 4 21 13 55 21
76 8 20 14 51 14 68 0 17 5 39 11 50 6 12 13 42 15 67 3 26 16 71 29 101 14
29 25 69 25 89 0 36 36 159 52 177 4 5 8 21 8 35 0 14 7 35 15 46 8 11 14 42
15 76 0 31 4 59 9 62 18 12 71 -66 71 -106 0 -13 6 -35 14 -49 7 -14 17 -48
20 -74 9 -57 31 -107 68 -156 16 -20 28 -40 28 -45 0 -4 7 -15 15 -24 8 -9 22
-43 31 -76 8 -32 24 -68 34 -80 11 -11 20 -26 20 -32 0 -43 173 -325 251 -409
21 -24 39 -50 39 -60 0 -26 102 -172 159 -228 28 -27 51 -54 51 -60 0 -5 18
-30 40 -54 22 -25 44 -60 50 -79 5 -20 25 -52 43 -71 19 -20 59 -73 90 -118
30 -46 74 -104 97 -130 24 -27 62 -84 85 -128 33 -64 51 -86 89 -112 44 -29
98 -94 128 -153 6 -14 41 -56 78 -95 36 -38 74 -83 85 -99 26 -38 53 -66 63
-66 5 0 39 31 75 69 44 45 67 77 67 93 0 15 -29 55 -88 118 -48 52 -109 128
-136 168 -30 45 -64 83 -89 99 -46 28 -61 47 -92 108 -30 59 -89 147 -115 170
-12 11 -45 54 -73 95 -28 41 -67 95 -88 120 -20 25 -42 61 -48 81 -6 20 -23
47 -37 60 -14 13 -33 38 -41 54 -9 17 -46 62 -84 101 -38 40 -69 76 -69 82 0
5 -13 26 -29 46 -16 20 -32 50 -36 65 -3 16 -24 48 -46 72 -82 90 -249 364
-249 408 0 6 -11 27 -25 47 -14 20 -25 46 -25 58 0 12 -7 32 -14 46 -8 14 -22
39 -31 57 -9 18 -23 37 -31 44 -20 16 -48 84 -64 149 -17 73 -47 166 -69 215
-67 145 -96 225 -107 291 -3 22 -10 43 -15 49 -5 5 -9 31 -9 57 0 27 -7 65
-15 85 -13 32 -15 158 -15 980 0 646 3 950 10 963 6 11 17 20 24 20 20 0 76
-67 76 -92 0 -11 12 -35 28 -53 40 -49 82 -120 82 -140 0 -10 10 -34 22 -54
39 -62 42 -67 71 -119 15 -28 27 -58 27 -67 0 -21 27 -73 56 -108 13 -16 24
-39 24 -51 0 -12 7 -31 15 -42 8 -10 15 -37 15 -59 0 -29 8 -50 28 -75 16 -19
32 -47 35 -61 4 -14 22 -45 41 -69 19 -24 37 -60 41 -79 9 -48 41 -109 81
-154 29 -32 34 -44 34 -88 0 -35 8 -67 26 -103 15 -28 30 -78 35 -111 21 -148
27 -183 38 -203 6 -11 11 -58 11 -104 1 -53 6 -92 15 -108 10 -17 14 -58 15
-132 0 -102 5 -127 40 -198 16 -32 42 -21 107 44 63 63 65 66 58 103 -3 21
-11 42 -16 48 -5 5 -9 59 -9 120 -1 69 -6 125 -15 150 -8 22 -15 74 -15 116 0
50 -5 82 -15 95 -8 11 -14 42 -15 75 0 33 -6 63 -15 75 -8 10 -15 41 -15 67 0
33 -9 66 -30 107 -23 46 -30 73 -30 119 0 48 -3 61 -18 65 -9 3 -23 16 -31 28
-36 58 -61 113 -61 135 0 14 -17 45 -39 71 -21 26 -41 59 -45 74 -3 14 -17 40
-31 56 -16 19 -25 43 -25 63 -1 19 -7 45 -15 59 -8 14 -14 35 -15 47 0 12 -13
38 -30 56 -16 19 -30 41 -30 50 0 8 -7 20 -15 27 -8 7 -15 27 -15 45 0 18 -7
38 -15 45 -8 7 -15 20 -15 30 0 10 -7 23 -15 30 -20 16 -61 91 -69 126 -4 16
-18 46 -32 66 -13 21 -24 40 -24 44 0 3 -13 22 -30 41 -16 18 -30 42 -30 52 0
10 -18 38 -39 62 -21 25 -46 63 -56 84 -23 56 -63 95 -96 95 -15 0 -31 -4 -34
-10 -3 -5 -17 -10 -31 -10 -23 0 -24 2 -24 81 0 45 5 90 12 102 7 12 16 54 19
92 11 106 26 176 44 195 8 9 15 29 15 44 0 15 18 55 40 88 22 34 40 69 40 78
0 8 7 25 14 36 14 20 26 21 196 23 101 1 194 7 209 13 14 6 42 18 61 26 19 9
56 16 81 17 30 1 55 8 73 23 15 11 53 31 84 42 31 12 73 36 93 53 20 18 56 46
79 62 23 17 58 42 79 57 57 43 53 33 -21 -42 -68 -70 -86 -110 -50 -110 11 0
32 11 48 25 25 21 39 25 96 25 37 0 69 4 72 9 3 5 21 12 40 15 19 4 48 14 65
22 33 16 65 12 59 -7 -2 -6 -27 -21 -56 -33 -33 -14 -77 -46 -116 -85 -55 -55
-64 -68 -64 -100 0 -20 -3 -51 -7 -68 l-7 -33 44 0 c40 0 48 5 106 63 40 41
66 76 73 100 8 29 22 45 62 70 54 35 130 111 162 162 11 17 29 43 42 58 13 16
23 38 23 50 0 12 14 42 30 66 29 42 30 49 30 152 0 59 -5 120 -10 135 -9 22
-6 32 15 60 14 18 25 39 25 47 0 8 7 20 15 27 8 7 15 25 15 39 0 18 12 39 34
60 32 31 72 103 93 166 5 17 15 29 21 28 8 -2 12 19 12 68 0 42 -4 68 -10 64
-5 -3 -17 6 -26 20 -13 20 -16 54 -18 177 l-1 153 -35 11 c-31 10 -35 15 -31
40 1 16 5 94 8 174 l4 145 -41 40 -40 39 0 97 c0 82 -3 100 -21 123 -19 24
-26 26 -105 26 l-85 0 -64 60 c-43 40 -73 60 -89 60 -18 0 -30 9 -40 29 -9 16
-12 31 -9 35 4 3 -51 6 -120 6 -106 0 -127 -3 -127 -15z m35 -185 c0 -15 -126
-62 -198 -73 -44 -7 -61 14 -34 40 43 44 232 70 232 33z m-458 -156 c6 -18
-36 -63 -79 -85 -22 -11 -42 -18 -45 -16 -6 7 46 105 60 111 19 8 60 2 64 -10z
m759 -55 c10 -17 -13 -36 -27 -22 -12 12 -4 33 11 33 5 0 12 -5 16 -11z m-466
-35 c0 -15 -146 -164 -162 -164 -17 0 -7 20 32 60 23 24 40 51 40 65 0 44 10
55 51 55 29 0 39 -4 39 -16z m169 -11 c-28 -37 -63 -63 -86 -63 -29 0 -30 18
0 29 12 5 31 18 41 30 11 11 28 21 39 21 17 0 18 -2 6 -17z m379 -85 c3 -21
-5 -32 -40 -56 -24 -17 -60 -48 -82 -70 -45 -47 -43 -72 5 -72 43 0 69 -25 69
-66 0 -18 5 -36 10 -39 23 -14 6 -40 -76 -118 -91 -86 -107 -111 -92 -139 11
-23 75 -24 106 -2 38 26 55 11 49 -42 -5 -46 -37 -94 -64 -94 -21 0 -144 -122
-141 -139 3 -13 23 -17 113 -21 106 -5 110 -6 113 -29 5 -31 -3 -59 -30 -101
-17 -28 -22 -51 -23 -115 -1 -68 -6 -88 -31 -135 l-29 -55 -68 -5 -68 -5 -70
-72 c-67 -69 -70 -74 -67 -115 l3 -43 48 -3 c30 -2 47 -8 47 -16 0 -27 -205
-196 -237 -196 -11 0 -40 -14 -63 -31 -33 -24 -57 -33 -94 -35 -29 -2 -74 -14
-105 -29 -52 -26 -58 -26 -241 -25 -146 0 -195 4 -217 15 -15 8 -44 15 -64 15
-39 0 -67 25 -116 105 -23 36 -23 42 -23 338 1 237 4 311 15 342 8 22 15 64
15 92 0 29 12 96 26 150 14 54 30 118 35 142 5 25 17 62 27 83 14 31 22 37 47
37 17 0 39 -6 49 -14 11 -8 41 -15 66 -15 54 0 103 30 160 99 51 61 50 59 50
148 0 99 7 106 108 103 91 -3 85 -5 137 40 l46 40 134 0 134 0 54 48 55 47 76
-3 c89 -5 120 5 167 54 40 41 72 42 77 2z m-1198 -77 c0 -19 -42 -81 -54 -81
-30 0 -25 30 12 73 16 18 42 23 42 8z m-275 -361 c7 -12 -4 -29 -63 -95 -41
-47 -43 -48 -62 -30 -41 37 -16 105 38 105 15 0 36 7 46 15 23 18 33 19 41 5z
m-208 -318 c-20 -20 -40 -33 -44 -29 -3 4 11 25 33 48 21 22 40 35 43 28 2 -6
-13 -27 -32 -47z m1907 -80 c16 -31 11 -72 -8 -72 -21 0 -36 23 -36 55 0 53
21 61 44 17z m-279 -724 c8 -15 12 -34 9 -43 -11 -29 -107 -65 -170 -65 -31 0
-74 -5 -95 -12 -22 -6 -42 -9 -45 -6 -3 3 29 39 69 80 41 42 78 84 81 94 3 11
21 26 39 35 32 15 32 15 65 -20 18 -20 39 -48 47 -63z m-5 -203 c0 -8 -9 -15
-20 -15 -20 0 -26 11 -13 23 12 13 33 7 33 -8z"/>
</g>
</svg>
