<?xml version="1.0" standalone="no"?>
<!DOCTYPE svg PUBLIC "-//W3C//DTD SVG 20010904//EN"
 "http://www.w3.org/TR/2001/REC-SVG-20010904/DTD/svg10.dtd">
<svg version="1.0" xmlns="http://www.w3.org/2000/svg"
 width="60.000000pt" height="60.000000pt" viewBox="0 0 60.000000 60.000000"
 preserveAspectRatio="xMidYMid meet">
<metadata>
Created by potrace 1.10, written by Peter Selinger 2001-2011
</metadata>
<g transform="translate(0.000000,60.000000) scale(0.040000,-0.040000)"
fill="#e15a00" stroke="none">
<path d="M148 1132 c-87 -39 -88 -44 -88 -544 0 -584 -57 -528 540 -528 598 0
540 -58 540 540 0 494 -9 539 -115 541 -19 0 -210 5 -425 10 -307 7 -403 3
-452 -19z m189 -65 c-12 -15 -30 -27 -41 -27 -10 0 -50 -24 -87 -52 -80 -61
-99 -23 -24 47 62 57 197 85 152 32z m195 -189 c225 -85 395 -308 435 -573
l13 -85 -80 0 c-74 0 -80 4 -80 56 0 232 -221 471 -473 513 -82 14 -106 43
-107 129 0 37 135 18 292 -40z m-53 -238 c127 -64 218 -195 248 -355 12 -64
11 -65 -67 -65 -72 0 -80 5 -80 51 0 120 -125 256 -256 278 -72 13 -78 18 -80
85 l-3 71 81 -13 c45 -7 116 -30 157 -52z m-50 -259 c41 -45 27 -111 -31 -142
-92 -49 -185 47 -129 132 39 59 111 64 160 10z"/>
</g>
</svg>
